# xmcd
#
# Track frame offsets: 
#        150
#        18782
#        34510
#        48094
#        64421
#        81889
#        98044
#        114136
#        125415
#        143568
#        157844
#        175140
#        191122
#        208955
#        227134
#        245207
#        261748
#        278284
#        294398
#        310385
#        326720
#        342733
#
# Disc length: 4799 seconds
#
# Revision: 0
# Processed by: cddbd v1.5.1PL0 Copyright (c) Steve Scherf et al.
# Submitted via: ExactAudioCopy v0.95a3
#
DISCID=4112bd16
DTITLE=Various Artist - Танцевальный Парад
DYEAR=2000
DGENRE=Pop
TTITLE0=Аркадий Укупник - Василий Звиренко
TTITLE1=Борис Моисеев - Аты-Баты
TTITLE2=Натали - Отбой
TTITLE3=Адреналин - Знай Себе, Тусуйся
TTITLE4=Сергей Лемох - Чао, Бамбино '2000
TTITLE5=Ультра - Тореро
TTITLE6=Мы - Давай, Танцуй
TTITLE7=Матрикс - Забудем Это Лето
TTITLE8=Нэнси - Весна
TTITLE9=Нерусский Проект - Буду Помнить
TTITLE10=Иzюм - Ночь
TTITLE11=Филипп Киркоров - Килиманджаро
TTITLE12=Валерий Леонтьев - Августин
TTITLE13=Валерий Сюткин - Бумбо-Мамбо
TTITLE14=Ультра - Кариньо
TTITLE15=Лена Перова - Лети За Солнцем
TTITLE16=DVD - Покажи Мне Любовь
TTITLE17=Жасмин - Мне Не Привыкать
TTITLE18=Штар - Ночные Миражи
TTITLE19=Леонид Агутин - Луна Над Облаками
TTITLE20=Леприконсы И Иван Купала - Виноград (Remix)
TTITLE21=Два Самолёта - Подруга (Dance Remix)
EXTD=
EXTT0=
EXTT1=
EXTT2=
EXTT3=
EXTT4=
EXTT5=
EXTT6=
EXTT7=
EXTT8=
EXTT9=
EXTT10=
EXTT11=
EXTT12=
EXTT13=
EXTT14=
EXTT15=
EXTT16=
EXTT17=
EXTT18=
EXTT19=
EXTT20=
EXTT21=
PLAYORDER=
